<svg width="80.000000" height="80.000000" viewBox="0 0 80 80" fill="none" xmlns="http://www.w3.org/2000/svg" xmlns:xlink="http://www.w3.org/1999/xlink">
	<desc>
			Created with Pixso.
	</desc>
	<defs/>
	<path id="Vector" d="M0 40.2233C0 60.11 14.4433 76.6467 33.3333 80L33.3333 51.11L23.3333 51.11L23.3333 40L33.3333 40L33.3333 31.11C33.3333 21.11 39.7767 15.5567 48.89 15.5567C51.7767 15.5567 54.89 16 57.7767 16.4433L57.7767 26.6667L52.6667 26.6667C47.7767 26.6667 46.6667 29.11 46.6667 32.2233L46.6667 40L57.3333 40L55.5566 51.11L46.6667 51.11L46.6667 80C65.5566 76.6467 80 60.1133 80 40.2233C80 18.1 62 0 40 0C18 0 0 18.1 0 40.2233Z" fill="#241400" fill-opacity="1.000000" fill-rule="evenodd"/>
</svg>
