<svg width="71.500000" height="71.499992" viewBox="0 0 71.5 71.5" fill="none" xmlns="http://www.w3.org/2000/svg" xmlns:xlink="http://www.w3.org/1999/xlink">
	<desc>
			Created with Pixso.
	</desc>
	<defs/>
	<path id="Vector" d="M21.0112 0.2145C24.8235 0.0389996 26.039 0 35.75 0C45.461 0 46.6765 0.0422497 50.4855 0.2145C54.2945 0.386749 56.8945 0.994499 59.1695 1.87525C61.5518 2.7755 63.713 4.18275 65.5005 6.00275C67.3205 7.787 68.7245 9.945 69.6215 12.3305C70.5055 14.6055 71.11 17.2055 71.2855 21.008C71.461 24.8267 71.5 26.0422 71.5 35.75C71.5 45.461 71.4578 46.6765 71.2855 50.4887C71.1132 54.2912 70.5055 56.8912 69.6215 59.1662C68.7245 61.552 67.3182 63.7136 65.5005 65.5005C63.713 67.3205 61.5518 68.7245 59.1695 69.6215C56.8945 70.5055 54.2945 71.11 50.492 71.2855C46.6765 71.461 45.461 71.5 35.75 71.5C26.039 71.5 24.8235 71.4577 21.0112 71.2855C17.2087 71.1132 14.6088 70.5055 12.3337 69.6215C9.948 68.7244 7.78644 67.3181 5.99951 65.5005C4.18073 63.7152 2.77325 61.5546 1.87524 59.1695C0.994507 56.8945 0.390015 54.2945 0.214478 50.492C0.0390015 46.6732 0 45.4577 0 35.75C0 26.039 0.0422363 24.8235 0.214478 21.0145C0.38678 17.2055 0.994507 14.6055 1.87524 12.3305C2.7746 9.94526 4.18311 7.78477 6.00275 5.9995C7.78711 4.18113 9.94653 2.77369 12.3305 1.87525C14.6055 0.994499 17.2055 0.389999 21.008 0.2145L21.0112 0.2145ZM50.1962 6.6495C46.4263 6.47725 45.2952 6.4415 35.75 6.4415C26.2048 6.4415 25.0737 6.47725 21.3038 6.6495C17.8165 6.80875 15.925 7.3905 14.664 7.88125C12.9968 8.53125 11.804 9.3015 10.5527 10.5527C9.36664 11.7067 8.45386 13.1114 7.88123 14.664C7.3905 15.925 6.80878 17.8165 6.64948 21.3037C6.47723 25.0737 6.44153 26.2047 6.44153 35.75C6.44153 45.2952 6.47723 46.4262 6.64948 50.1962C6.80878 53.6835 7.3905 55.575 7.88123 56.836C8.45325 58.3862 9.36652 59.7935 10.5527 60.9472C11.7065 62.1335 13.1138 63.0467 14.664 63.6187C15.925 64.1095 17.8165 64.6912 21.3038 64.8505C25.0737 65.0227 26.2015 65.0585 35.75 65.0585C45.2985 65.0585 46.4263 65.0227 50.1962 64.8505C53.6835 64.6912 55.575 64.1095 56.836 63.6187C58.5032 62.9687 59.696 62.1985 60.9473 60.9472C62.1335 59.7935 63.0468 58.3862 63.6188 56.836C64.1095 55.575 64.6912 53.6835 64.8505 50.1962C65.0228 46.4262 65.0585 45.2952 65.0585 35.75C65.0585 26.2047 65.0228 25.0737 64.8505 21.3037C64.6912 17.8165 64.1095 15.925 63.6188 14.664C62.9688 12.9967 62.1985 11.804 60.9473 10.5527C59.7933 9.36673 58.3885 8.45393 56.836 7.88125C55.575 7.3905 53.6835 6.80875 50.1962 6.6495ZM31.1838 46.7707C33.7339 47.8323 36.5735 47.9756 39.2175 47.1761C41.8616 46.3766 44.1461 44.684 45.6807 42.3873C47.2155 40.0906 47.9052 37.3323 47.6321 34.5836C47.3591 31.8348 46.1403 29.2662 44.1838 27.3162C42.9365 26.0698 41.4285 25.1154 39.7681 24.5217C38.1077 23.9281 36.3364 23.7099 34.5816 23.883C32.8268 24.0561 31.1323 24.6161 29.6199 25.5227C28.1075 26.4293 26.8149 27.6599 25.8352 29.126C24.8555 30.5921 24.2131 32.2572 23.9542 34.0014C23.6953 35.7456 23.8262 37.5255 24.3378 39.2129C24.8492 40.9004 25.7286 42.4535 26.9124 43.7603C28.0961 45.0672 29.5549 46.0953 31.1838 46.7707ZM22.7565 22.7565C24.4628 21.0502 26.4885 19.6966 28.718 18.7732C30.9474 17.8497 33.3369 17.3744 35.75 17.3744C38.1631 17.3744 40.5526 17.8497 42.782 18.7732C45.0115 19.6966 47.0372 21.0502 48.7435 22.7565C50.4498 24.4628 51.8033 26.4885 52.7268 28.718C53.6503 30.9474 54.1256 33.3369 54.1256 35.75C54.1256 38.1631 53.6503 40.5526 52.7268 42.782C51.8033 45.0115 50.4498 47.0372 48.7435 48.7435C45.2974 52.1896 40.6235 54.1256 35.75 54.1256C30.8765 54.1256 26.2026 52.1896 22.7565 48.7435C19.3104 45.2974 17.3744 40.6235 17.3744 35.75C17.3744 30.8765 19.3104 26.2026 22.7565 22.7565ZM58.201 20.111C58.6238 19.7121 58.9623 19.2325 59.1965 18.7004C59.4306 18.1684 59.5556 17.5947 59.5641 17.0135C59.5726 16.4323 59.4644 15.8553 59.2458 15.3166C59.0273 14.778 58.7029 14.2887 58.2919 13.8776C57.8809 13.4666 57.3915 13.1422 56.8528 12.9237C56.3142 12.7052 55.7372 12.5969 55.1559 12.6054C54.5748 12.6139 54.0012 12.7389 53.4691 12.973C52.937 13.2072 52.4574 13.5457 52.0585 13.9685C51.2828 14.7908 50.858 15.8831 50.8745 17.0135C50.891 18.1439 51.3474 19.2234 52.1468 20.0227C52.9462 20.8221 54.0256 21.2785 55.1559 21.295C56.2864 21.3114 57.3787 20.8867 58.201 20.111Z" fill="#241400" fill-opacity="1.000000" fill-rule="evenodd"/>
</svg>
