<svg width="33" height="36" viewBox="0 0 33 36" fill="none" xmlns="http://www.w3.org/2000/svg">
<path d="M30.0994 10.6048C29.9683 9.23771 29.9498 6.88316 30.865 6.09253C30.8813 6.07804 30.8935 6.0571 30.9078 6.03912C31.656 5.70709 32.1738 5.24111 31.7673 4.61409L20.7305 0L2.85933 3.44742C2.85933 3.44742 0.812861 3.85326 0.995676 8.2647C1.09492 10.6657 1.63766 11.8448 2.1123 12.4252L0.645811 13.0384C0.23878 13.6654 0.756468 14.1315 1.50476 14.463C1.51897 14.4815 1.53097 14.5023 1.54761 14.5168C2.46217 15.3081 2.44456 17.6624 2.31301 19.0297C-0.972544 20.3241 0.20686 20.746 0.20686 20.746L0.92758 20.9879C0.420629 21.6236 -0.0828402 22.8289 0.0114696 25.1149C0.194382 29.5255 1.87532 29.8299 1.87532 29.8299L13.5701 35.104L31.222 29.1717C31.222 29.1717 32.4018 28.7492 29.1154 27.4546C28.9832 26.0895 28.9648 23.7355 29.8815 22.9422C29.8984 22.9281 29.9107 22.9067 29.9243 22.889C30.6726 22.557 31.1899 22.0914 30.7833 21.4644L30.0161 21.143C30.5278 20.7148 31.2964 19.5959 31.4168 16.6895C31.4999 14.6903 31.124 13.5195 30.6889 12.8302L32.2054 12.321C32.2055 12.3218 33.3853 11.8993 30.0994 10.6048ZM15.3346 10.5483L18.303 9.70181L28.3345 6.84155L29.829 6.41504C29.3515 7.62775 29.3715 9.28737 29.4505 10.3541C29.4678 10.5954 29.4878 10.8157 29.5071 10.9832L27.8712 11.5476L15.2098 15.9178L15.3346 10.5483ZM2.58366 14.8407L4.07801 15.2672L13.7118 18.015L14.5535 18.2541L17.0774 18.9739L17.2019 24.3436L4.18867 19.8515L2.90576 19.4091C2.92462 19.2414 2.94455 19.0212 2.96264 18.7793C3.04118 17.7134 3.06159 16.0534 2.58366 14.8407ZM2.0031 8.05238C1.98501 6.879 2.13571 6.03039 2.44031 5.59905C2.63415 5.32365 2.86291 5.26635 3.01981 5.26635C3.1027 5.26635 3.16238 5.28232 3.16644 5.28232L10.8667 8.76543L14.7084 10.5033L14.5824 15.9104L3.80475 11.718L3.23599 11.497C3.2151 11.4888 3.18676 11.4832 3.1649 11.4818C3.1205 11.4774 2.05494 11.3413 2.0031 8.05238ZM13.598 32.7614L2.25188 28.3478C2.23089 28.3394 2.20284 28.3337 2.18098 28.3322C2.13581 28.3281 1.06977 28.1921 1.01821 24.904C0.999836 23.7292 1.15131 22.8814 1.45533 22.4496C1.64965 22.1742 1.87851 22.1169 2.03511 22.1169C2.1182 22.1169 2.17769 22.1323 2.18204 22.1323C2.18204 22.1323 2.18253 22.1323 2.18204 22.1323L13.7232 27.3541L13.598 32.7614ZM28.4655 27.2042C28.4834 27.4463 28.5034 27.6663 28.5227 27.8341L14.2252 32.769L14.3501 27.3994L17.4068 26.5274L17.8583 26.6789L19.5502 25.9159L27.3495 23.6922L28.8446 23.2655C28.3666 24.478 28.3864 26.1383 28.4655 27.2042ZM29.2531 19.9066C29.2271 19.9074 29.2011 19.9123 29.1766 19.923L28.0983 20.3419L17.8308 24.3364L17.7052 18.9293L21.0739 17.4048L29.2307 13.714C29.2317 13.7133 29.6597 13.5814 29.9739 14.0247C30.278 14.456 30.4289 15.3046 30.4111 16.478C30.3579 19.7658 29.2919 19.9025 29.2531 19.9066Z" fill="white"/>
</svg>
