<svg width="16.740479" height="21.000000" viewBox="0 0 16.7405 21" fill="none" xmlns="http://www.w3.org/2000/svg" xmlns:xlink="http://www.w3.org/1999/xlink">
	<desc>
			Created with Pixso.
	</desc>
	<defs/>
	<path id="Combined Shape" d="M16.7405 17.114C16.7405 20.5973 11.9635 21 8.37134 21L8.11426 20.9998C5.82556 20.9943 0 20.8497 0 17.0928C0 13.6805 4.58496 13.2245 8.1499 13.2073L8.6283 13.207C10.9169 13.2125 16.7405 13.3571 16.7405 17.114ZM8.37134 14.7921C3.86804 14.7921 1.58533 15.5657 1.58533 17.0928C1.58533 18.6337 3.86804 19.4147 8.37134 19.4147C12.8734 19.4147 15.1552 18.6411 15.1552 17.114C15.1552 15.5731 12.8734 14.7921 8.37134 14.7921ZM8.37134 0C11.4657 0 13.9821 2.51746 13.9821 5.61182C13.9821 8.7063 11.4657 11.2227 8.37134 11.2227L8.33752 11.2227C5.24939 11.2131 2.7478 8.6947 2.7583 5.60864C2.7583 2.51746 5.27576 0 8.37134 0ZM8.37134 1.50916C6.10864 1.50916 4.26758 3.34912 4.26758 5.61182C4.26013 7.86719 6.0874 9.70605 8.3407 9.7146L8.37134 10.4691L8.37134 9.7146C10.6329 9.7146 12.4729 7.87354 12.4729 5.61182C12.4729 3.34912 10.6329 1.50916 8.37134 1.50916Z" fill="#000000" fill-opacity="1.000000" fill-rule="evenodd"/>
</svg>
