<svg width="177.000000" height="42.000000" viewBox="0 0 177 42" fill="none" xmlns="http://www.w3.org/2000/svg" xmlns:xlink="http://www.w3.org/1999/xlink">
	<desc>
			Created with Pixso.
	</desc>
	<defs>
		<clipPath id="clip1_245">
			<rect id="books-stack-of-three 2" width="42.000000" height="42.000000" fill="white" fill-opacity="0"/>
		</clipPath>
	</defs>
	<path id="LIBRARY" d="M47.798 8.6117L51.102 8.6117L51.102 15.8497L55.526 15.8497L55.526 18.4117L47.798 18.4117L47.798 8.6117ZM56.4386 8.6117L59.7426 8.6117L59.7426 18.4117L56.4386 18.4117L56.4386 8.6117ZM69.1732 13.2877C69.7518 13.5024 70.1998 13.815 70.5172 14.2257C70.8345 14.6364 70.9932 15.131 70.9932 15.7097C70.9932 16.5684 70.6385 17.2357 69.9292 17.7117C69.2198 18.1784 68.1932 18.4117 66.8492 18.4117L61.3332 18.4117L61.3332 8.6117L66.5692 8.6117C67.8758 8.6117 68.8605 8.84503 69.5232 9.3117C70.1952 9.77837 70.5312 10.399 70.5312 11.1737C70.5312 11.631 70.4145 12.0417 70.1812 12.4057C69.9572 12.7697 69.6212 13.0637 69.1732 13.2877ZM64.5812 10.9217L64.5812 12.3777L66.1212 12.3777C66.8398 12.3777 67.1992 12.135 67.1992 11.6497C67.1992 11.1644 66.8398 10.9217 66.1212 10.9217L64.5812 10.9217ZM66.5692 16.1017C67.2972 16.1017 67.6612 15.845 67.6612 15.3317C67.6612 14.8184 67.2972 14.5617 66.5692 14.5617L64.5812 14.5617L64.5812 16.1017L66.5692 16.1017ZM76.3613 15.9477L75.4653 15.9477L75.4653 18.4117L72.1613 18.4117L72.1613 8.6117L76.8793 8.6117C77.7846 8.6117 78.5733 8.76103 79.2453 9.0597C79.9173 9.35837 80.4353 9.7877 80.7993 10.3477C81.1633 10.9077 81.3453 11.561 81.3453 12.3077C81.3453 13.0077 81.1866 13.619 80.8693 14.1417C80.5519 14.6644 80.0946 15.0797 79.4973 15.3877L81.5553 18.4117L78.0273 18.4117L76.3613 15.9477ZM78.0133 12.3077C78.0133 11.9437 77.9013 11.6637 77.6773 11.4677C77.4533 11.2624 77.1173 11.1597 76.6693 11.1597L75.4653 11.1597L75.4653 13.4557L76.6693 13.4557C77.1173 13.4557 77.4533 13.3577 77.6773 13.1617C77.9013 12.9564 78.0133 12.6717 78.0133 12.3077ZM89.2709 16.7037L85.5469 16.7037L84.8889 18.4117L81.5289 18.4117L85.8129 8.6117L89.0609 8.6117L93.3449 18.4117L89.9289 18.4117L89.2709 16.7037ZM88.3609 14.3237L87.4089 11.8597L86.4569 14.3237L88.3609 14.3237ZM98.0722 15.9477L97.1762 15.9477L97.1762 18.4117L93.8722 18.4117L93.8722 8.6117L98.5902 8.6117C99.4956 8.6117 100.284 8.76103 100.956 9.0597C101.628 9.35837 102.146 9.7877 102.51 10.3477C102.874 10.9077 103.056 11.561 103.056 12.3077C103.056 13.0077 102.898 13.619 102.58 14.1417C102.263 14.6644 101.806 15.0797 101.208 15.3877L103.266 18.4117L99.7382 18.4117L98.0722 15.9477ZM99.7242 12.3077C99.7242 11.9437 99.6122 11.6637 99.3882 11.4677C99.1642 11.2624 98.8282 11.1597 98.3802 11.1597L97.1762 11.1597L97.1762 13.4557L98.3802 13.4557C98.8282 13.4557 99.1642 13.3577 99.3882 13.1617C99.6122 12.9564 99.7242 12.6717 99.7242 12.3077ZM109.991 14.8557L109.991 18.4117L106.687 18.4117L106.687 14.8137L102.991 8.6117L106.477 8.6117L108.479 11.9997L110.495 8.6117L113.687 8.6117L109.991 14.8557Z" fill="#720418" fill-opacity="1.000000" fill-rule="evenodd"/>
	<path id="book store" d="M54.81 25.6632C55.4513 25.6632 56.032 25.8105 56.552 26.1052C57.072 26.3912 57.4793 26.7985 57.774 27.3272C58.0687 27.8559 58.216 28.4582 58.216 29.1342C58.216 29.8102 58.0687 30.4125 57.774 30.9412C57.4793 31.4699 57.072 31.8815 56.552 32.1762C56.032 32.4709 55.4513 32.6182 54.81 32.6182C54.238 32.6182 53.7223 32.4969 53.263 32.2542C52.8123 32.0115 52.4483 31.6605 52.171 31.2012L52.171 32.5532L51.287 32.5532L51.287 22.9072L52.21 22.9072L52.21 27.0152C52.496 26.5732 52.86 26.2395 53.302 26.0142C53.7527 25.7802 54.2553 25.6632 54.81 25.6632ZM54.745 31.7992C55.2217 31.7992 55.655 31.6909 56.045 31.4742C56.435 31.2489 56.7383 30.9325 56.955 30.5252C57.1803 30.1179 57.293 29.6542 57.293 29.1342C57.293 28.6142 57.1803 28.1505 56.955 27.7432C56.7383 27.3359 56.435 27.0239 56.045 26.8072C55.655 26.5819 55.2217 26.4692 54.745 26.4692C54.2597 26.4692 53.822 26.5819 53.432 26.8072C53.0507 27.0239 52.7473 27.3359 52.522 27.7432C52.3053 28.1505 52.197 28.6142 52.197 29.1342C52.197 29.6542 52.3053 30.1179 52.522 30.5252C52.7473 30.9325 53.0507 31.2489 53.432 31.4742C53.822 31.6909 54.2597 31.7992 54.745 31.7992ZM62.8925 32.6182C62.2339 32.6182 61.6402 32.4709 61.1115 32.1762C60.5829 31.8729 60.1669 31.4569 59.8635 30.9282C59.5602 30.3995 59.4085 29.8015 59.4085 29.1342C59.4085 28.4669 59.5602 27.8689 59.8635 27.3402C60.1669 26.8115 60.5829 26.3999 61.1115 26.1052C61.6402 25.8105 62.2339 25.6632 62.8925 25.6632C63.5512 25.6632 64.1449 25.8105 64.6735 26.1052C65.2022 26.3999 65.6139 26.8115 65.9085 27.3402C66.2119 27.8689 66.3635 28.4669 66.3635 29.1342C66.3635 29.8015 66.2119 30.3995 65.9085 30.9282C65.6139 31.4569 65.2022 31.8729 64.6735 32.1762C64.1449 32.4709 63.5512 32.6182 62.8925 32.6182ZM62.8925 31.7992C63.3779 31.7992 63.8112 31.6909 64.1926 31.4742C64.5826 31.2489 64.8859 30.9325 65.1025 30.5252C65.3192 30.1179 65.4276 29.6542 65.4276 29.1342C65.4276 28.6142 65.3192 28.1505 65.1025 27.7432C64.8859 27.3359 64.5826 27.0239 64.1926 26.8072C63.8112 26.5819 63.3779 26.4692 62.8925 26.4692C62.4072 26.4692 61.9695 26.5819 61.5795 26.8072C61.1982 27.0239 60.8949 27.3359 60.6695 27.7432C60.4529 28.1505 60.3445 28.6142 60.3445 29.1342C60.3445 29.6542 60.4529 30.1179 60.6695 30.5252C60.8949 30.9325 61.1982 31.2489 61.5795 31.4742C61.9695 31.6909 62.4072 31.7992 62.8925 31.7992ZM71.0429 32.6182C70.3843 32.6182 69.7906 32.4709 69.2619 32.1762C68.7333 31.8729 68.3173 31.4569 68.0139 30.9282C67.7106 30.3995 67.5589 29.8015 67.5589 29.1342C67.5589 28.4669 67.7106 27.8689 68.0139 27.3402C68.3173 26.8115 68.7333 26.3999 69.2619 26.1052C69.7906 25.8105 70.3843 25.6632 71.0429 25.6632C71.7016 25.6632 72.2953 25.8105 72.8239 26.1052C73.3526 26.3999 73.7643 26.8115 74.0589 27.3402C74.3623 27.8689 74.5139 28.4669 74.5139 29.1342C74.5139 29.8015 74.3623 30.3995 74.0589 30.9282C73.7643 31.4569 73.3526 31.8729 72.8239 32.1762C72.2953 32.4709 71.7016 32.6182 71.0429 32.6182ZM71.0429 31.7992C71.5283 31.7992 71.9616 31.6909 72.3429 31.4742C72.7329 31.2489 73.0363 30.9325 73.2529 30.5252C73.4696 30.1179 73.5779 29.6542 73.5779 29.1342C73.5779 28.6142 73.4696 28.1505 73.2529 27.7432C73.0363 27.3359 72.7329 27.0239 72.3429 26.8072C71.9616 26.5819 71.5283 26.4692 71.0429 26.4692C70.5576 26.4692 70.1199 26.5819 69.7299 26.8072C69.3486 27.0239 69.0453 27.3359 68.8199 27.7432C68.6033 28.1505 68.4949 28.6142 68.4949 29.1342C68.4949 29.6542 68.6033 30.1179 68.8199 30.5252C69.0453 30.9325 69.3486 31.2489 69.7299 31.4742C70.1199 31.6909 70.5576 31.7992 71.0429 31.7992ZM78.9333 29.1212L77.3213 30.6032L77.3213 32.5532L76.3983 32.5532L76.3983 22.9072L77.3213 22.9072L77.3213 29.4462L81.4033 25.7152L82.5473 25.7152L79.6223 28.5102L82.8203 32.5532L81.6893 32.5532L78.9333 29.1212ZM89.4413 32.6182C88.8866 32.6182 88.3536 32.5402 87.8423 32.3842C87.3396 32.2195 86.9453 32.0159 86.6593 31.7732L87.0753 31.0452C87.3613 31.2705 87.721 31.4569 88.1543 31.6042C88.5876 31.7429 89.0383 31.8122 89.5063 31.8122C90.1303 31.8122 90.5896 31.7169 90.8843 31.5262C91.1876 31.3269 91.3393 31.0495 91.3393 30.6942C91.3393 30.4429 91.257 30.2479 91.0923 30.1092C90.9276 29.9619 90.7196 29.8535 90.4683 29.7842C90.217 29.7062 89.8833 29.6325 89.4673 29.5632C88.9126 29.4592 88.4663 29.3552 88.1283 29.2512C87.7903 29.1385 87.5 28.9522 87.2573 28.6922C87.0233 28.4322 86.9063 28.0725 86.9063 27.6132C86.9063 27.0412 87.1446 26.5732 87.6213 26.2092C88.098 25.8452 88.761 25.6632 89.6103 25.6632C90.0523 25.6632 90.4943 25.7239 90.9363 25.8452C91.3783 25.9579 91.7423 26.1095 92.0283 26.3002L91.6253 27.0412C91.062 26.6512 90.3903 26.4562 89.6103 26.4562C89.021 26.4562 88.5746 26.5602 88.2713 26.7682C87.9766 26.9762 87.8293 27.2492 87.8293 27.5872C87.8293 27.8472 87.9116 28.0552 88.0763 28.2112C88.2496 28.3672 88.462 28.4842 88.7133 28.5622C88.9646 28.6315 89.3113 28.7052 89.7533 28.7832C90.2993 28.8872 90.737 28.9912 91.0663 29.0952C91.3956 29.1992 91.6773 29.3769 91.9113 29.6282C92.1453 29.8795 92.2623 30.2262 92.2623 30.6682C92.2623 31.2662 92.011 31.7429 91.5083 32.0982C91.0143 32.4449 90.3253 32.6182 89.4413 32.6182ZM97.5696 32.1372C97.3963 32.2932 97.1796 32.4145 96.9196 32.5012C96.6683 32.5792 96.404 32.6182 96.1266 32.6182C95.4853 32.6182 94.9913 32.4449 94.6446 32.0982C94.298 31.7515 94.1246 31.2619 94.1246 30.6292L94.1246 26.4952L92.9026 26.4952L92.9026 25.7152L94.1246 25.7152L94.1246 24.2202L95.0476 24.2202L95.0476 25.7152L97.1276 25.7152L97.1276 26.4952L95.0476 26.4952L95.0476 30.5772C95.0476 30.9845 95.1473 31.2965 95.3466 31.5132C95.5546 31.7212 95.8493 31.8252 96.2306 31.8252C96.4213 31.8252 96.6033 31.7949 96.7766 31.7342C96.9586 31.6735 97.1146 31.5869 97.2446 31.4742L97.5696 32.1372ZM101.804 32.6182C101.145 32.6182 100.551 32.4709 100.023 32.1762C99.494 31.8729 99.078 31.4569 98.7747 30.9282C98.4713 30.3995 98.3197 29.8015 98.3197 29.1342C98.3197 28.4669 98.4713 27.8689 98.7747 27.3402C99.078 26.8115 99.494 26.3999 100.023 26.1052C100.551 25.8105 101.145 25.6632 101.804 25.6632C102.462 25.6632 103.056 25.8105 103.585 26.1052C104.113 26.3999 104.525 26.8115 104.82 27.3402C105.123 27.8689 105.275 28.4669 105.275 29.1342C105.275 29.8015 105.123 30.3995 104.82 30.9282C104.525 31.4569 104.113 31.8729 103.585 32.1762C103.056 32.4709 102.462 32.6182 101.804 32.6182ZM101.804 31.7992C102.289 31.7992 102.722 31.6909 103.104 31.4742C103.494 31.2489 103.797 30.9325 104.014 30.5252C104.23 30.1179 104.339 29.6542 104.339 29.1342C104.339 28.6142 104.23 28.1505 104.014 27.7432C103.797 27.3359 103.494 27.0239 103.104 26.8072C102.722 26.5819 102.289 26.4692 101.804 26.4692C101.318 26.4692 100.881 26.5819 100.491 26.8072C100.109 27.0239 99.806 27.3359 99.5807 27.7432C99.364 28.1505 99.2557 28.6142 99.2557 29.1342C99.2557 29.6542 99.364 30.1179 99.5807 30.5252C99.806 30.9325 100.109 31.2489 100.491 31.4742C100.881 31.6909 101.318 31.7992 101.804 31.7992ZM108.043 27.0542C108.26 26.5949 108.58 26.2482 109.005 26.0142C109.438 25.7802 109.971 25.6632 110.604 25.6632L110.604 26.5602L110.383 26.5472C109.664 26.5472 109.1 26.7682 108.693 27.2102C108.286 27.6522 108.082 28.2719 108.082 29.0692L108.082 32.5532L107.159 32.5532L107.159 25.7152L108.043 25.7152L108.043 27.0542ZM118.166 29.4202L112.446 29.4202C112.498 30.1309 112.771 30.7072 113.265 31.1492C113.759 31.5825 114.383 31.7992 115.137 31.7992C115.561 31.7992 115.951 31.7255 116.307 31.5782C116.662 31.4222 116.97 31.1969 117.23 30.9022L117.75 31.5002C117.446 31.8642 117.065 32.1415 116.606 32.3322C116.155 32.5229 115.657 32.6182 115.111 32.6182C114.409 32.6182 113.785 32.4709 113.239 32.1762C112.701 31.8729 112.281 31.4569 111.978 30.9282C111.674 30.3995 111.523 29.8015 111.523 29.1342C111.523 28.4669 111.666 27.8689 111.952 27.3402C112.246 26.8115 112.645 26.3999 113.148 26.1052C113.659 25.8105 114.231 25.6632 114.864 25.6632C115.496 25.6632 116.064 25.8105 116.567 26.1052C117.069 26.3999 117.464 26.8115 117.75 27.3402C118.036 27.8602 118.179 28.4582 118.179 29.1342L118.166 29.4202ZM114.864 26.4562C114.205 26.4562 113.65 26.6685 113.2 27.0932C112.758 27.5092 112.506 28.0552 112.446 28.7312L117.295 28.7312C117.234 28.0552 116.978 27.5092 116.528 27.0932C116.086 26.6685 115.531 26.4562 114.864 26.4562Z" fill="#241400" fill-opacity="1.000000" fill-rule="evenodd"/>
	<line id="Line 1" x1="48.000000" y1="20.892700" x2="175.000000" y2="20.892700" stroke="#000000" stroke-opacity="0.590000" stroke-width="1.000000"/>
	<rect id="books-stack-of-three 2" width="42.000000" height="42.000000" fill="#FFFFFF" fill-opacity="0"/>
	<g clip-path="url(#clip1_245)">
		<path id="Vector" d="M39.0037 14.9043C38.8339 13.6276 38.81 11.4285 39.9958 10.6901C40.017 10.6765 40.0328 10.657 40.0514 10.6403C41.0209 10.3301 41.6919 9.8949 41.1652 9.30933L26.8633 5L3.70522 8.21973C3.70522 8.21973 1.05333 8.59875 1.29023 12.7188C1.41883 14.9612 2.12213 16.0625 2.73719 16.6045L0.836861 17.1771C0.309418 17.7627 0.980255 18.198 1.94991 18.5077C1.96834 18.5249 1.98388 18.5444 2.00544 18.5579C3.19056 19.297 3.16775 21.4957 2.99728 22.7727C-1.26025 23.9817 0.268059 24.3756 0.268059 24.3756L1.20199 24.6016C0.545067 25.1952 -0.107346 26.3209 0.0148621 28.4559C0.251884 32.5752 2.4301 32.8595 2.4301 32.8595L17.5846 37.7853L40.4585 32.2448C40.4585 32.2448 41.9873 31.8502 37.7286 30.6411C37.5574 29.3662 37.5336 27.1676 38.7215 26.4268C38.7433 26.4136 38.7592 26.3937 38.7769 26.3771C39.7465 26.067 40.4169 25.6322 39.8901 25.0466L38.8958 24.7463C39.5589 24.3466 40.5549 23.3015 40.7109 20.5872C40.8186 18.72 40.3315 17.6265 39.7677 16.9827L41.7328 16.5072C41.733 16.5079 43.2618 16.1133 39.0037 14.9043ZM19.8711 14.8514L23.7176 14.0609L36.7167 11.3896L38.6534 10.9913C38.0346 12.1239 38.0605 13.674 38.1629 14.6702C38.1854 14.8955 38.2112 15.1013 38.2363 15.2577L36.1165 15.7848L19.7094 19.8663L19.8711 14.8514ZM3.34799 18.8604L5.28442 19.2587L17.7682 21.825L18.8588 22.0483L22.1294 22.7206L22.2907 27.7356L5.42781 23.5402L3.76538 23.1271C3.78983 22.9703 3.81564 22.7648 3.83908 22.5388C3.94086 21.5433 3.96731 19.9929 3.34799 18.8604ZM2.59568 12.5205C2.57224 11.4246 2.76752 10.6321 3.16223 10.2292C3.41342 9.97205 3.70985 9.91846 3.91316 9.91846C4.02058 9.91846 4.09792 9.93335 4.10318 9.93335L14.0814 13.1864L19.0596 14.8096L18.8963 19.8595L4.93032 15.944L4.19331 15.7375C4.16623 15.7299 4.1295 15.7246 4.10118 15.7234C4.04365 15.7192 2.66286 15.5922 2.59568 12.5205ZM17.6207 35.5974L2.91806 31.4753C2.89086 31.4674 2.85452 31.4622 2.82619 31.4608C2.76765 31.4569 1.38625 31.33 1.31944 28.259C1.29562 27.1617 1.49191 26.37 1.88586 25.9667C2.13767 25.7095 2.43423 25.656 2.63717 25.656C2.74483 25.656 2.82192 25.6704 2.82757 25.6704L17.783 30.5472L17.6207 35.5974ZM36.8866 30.4072C36.9098 30.6334 36.9356 30.8389 36.9606 30.9955L18.4334 35.6045L18.5954 30.5895L22.5563 29.7751L23.1413 29.9166L25.3338 29.2041L35.4404 27.1273L37.3778 26.7286C36.7583 27.8612 36.784 29.4117 36.8866 30.4072ZM37.9071 23.5917C37.8734 23.5924 37.8397 23.5969 37.808 23.6071L36.4106 23.9982L23.1057 27.7289L22.943 22.679L27.3082 21.2551L37.878 17.8081C37.8794 17.8075 38.4341 17.6843 38.8412 18.0983C39.2353 18.5011 39.4308 19.2937 39.4077 20.3895C39.3388 23.4602 37.9574 23.5878 37.9071 23.5917Z" fill="#720418" fill-opacity="1.000000" fill-rule="nonzero"/>
	</g>
</svg>
