<svg width="88.567871" height="71.999992" viewBox="0 0 88.5679 72" fill="none" xmlns="http://www.w3.org/2000/svg" xmlns:xlink="http://www.w3.org/1999/xlink">
	<desc>
			Created with Pixso.
	</desc>
	<defs/>
	<path id="Vector" d="M88.5679 8.54051C85.3108 9.98375 81.812 10.9589 78.1337 11.3997C81.929 9.1287 84.7684 5.55445 86.1221 1.34384C82.5564 3.46185 78.6538 4.95269 74.584 5.75156C71.8473 2.82946 68.2224 0.892639 64.272 0.24181C60.3217 -0.409019 56.2671 0.262551 52.7375 2.15226C49.208 4.04197 46.4011 7.04408 44.7526 10.6925C43.1041 14.3409 42.7062 18.4316 43.6208 22.3293C36.3956 21.9665 29.3275 20.0885 22.875 16.8173C16.4225 13.546 10.73 8.95461 6.16693 3.34097C4.60663 6.03241 3.70953 9.15292 3.70953 12.4763C3.70776 15.468 4.44452 18.414 5.85437 21.0527C7.26422 23.6915 9.30365 25.9414 11.7916 27.6029C8.90625 27.5111 6.08447 26.7315 3.56128 25.3289L3.56128 25.5629C3.56097 29.759 5.01245 33.8259 7.66937 37.0737C10.3263 40.3214 14.025 42.5499 18.1379 43.381C15.4613 44.1054 12.655 44.2121 9.93103 43.6931C11.0914 47.3035 13.3519 50.4608 16.3958 52.7227C19.4398 54.9847 23.1149 56.2382 26.9066 56.3077C20.4699 61.3606 12.5206 64.1015 4.33752 64.0895C2.88794 64.0899 1.43964 64.0052 0 63.8359C8.30634 69.1766 17.9755 72.011 27.8505 72C61.279 72 79.5535 44.3133 79.5535 20.3009C79.5535 19.5208 79.534 18.7329 79.4989 17.9527C83.0535 15.3821 86.1218 12.1989 88.5601 8.55222L88.5679 8.54051Z" fill="#241400" fill-opacity="1.000000" fill-rule="nonzero"/>
</svg>
