<svg width="286.571442" height="68.000000" viewBox="0 0 286.571 68" fill="none" xmlns="http://www.w3.org/2000/svg" xmlns:xlink="http://www.w3.org/1999/xlink">
	<desc>
			Created with Pixso.
	</desc>
	<defs>
		<clipPath id="clip6_286">
			<rect id="books-stack-of-three 2" width="68.000000" height="68.000000" fill="white" fill-opacity="0"/>
		</clipPath>
	</defs>
	<path id="LIBRARY" d="M76.8932 16.9024L80.1972 16.9024L80.1972 24.1404L84.6212 24.1404L84.6212 26.7024L76.8932 26.7024L76.8932 16.9024ZM85.5339 16.9024L88.8379 16.9024L88.8379 26.7024L85.5339 26.7024L85.5339 16.9024ZM98.2684 21.5784C98.8471 21.793 99.2951 22.1057 99.6124 22.5164C99.9297 22.927 100.088 23.4217 100.088 24.0004C100.088 24.859 99.7337 25.5264 99.0244 26.0024C98.3151 26.469 97.2884 26.7024 95.9444 26.7024L90.4284 26.7024L90.4284 16.9024L95.6644 16.9024C96.9711 16.9024 97.9557 17.1357 98.6184 17.6024C99.2904 18.069 99.6264 18.6897 99.6264 19.4644C99.6264 19.9217 99.5097 20.3324 99.2764 20.6964C99.0524 21.0604 98.7164 21.3544 98.2684 21.5784ZM93.6764 19.2124L93.6764 20.6684L95.2164 20.6684C95.9351 20.6684 96.2944 20.4257 96.2944 19.9404C96.2944 19.455 95.9351 19.2124 95.2164 19.2124L93.6764 19.2124ZM95.6644 24.3924C96.3924 24.3924 96.7564 24.1357 96.7564 23.6224C96.7564 23.109 96.3924 22.8524 95.6644 22.8524L93.6764 22.8524L93.6764 24.3924L95.6644 24.3924ZM105.457 24.2384L104.561 24.2384L104.561 26.7024L101.257 26.7024L101.257 16.9024L105.975 16.9024C106.88 16.9024 107.669 17.0517 108.341 17.3504C109.013 17.649 109.531 18.0784 109.895 18.6384C110.259 19.1984 110.441 19.8517 110.441 20.5984C110.441 21.2984 110.282 21.9097 109.965 22.4324C109.647 22.955 109.19 23.3704 108.593 23.6784L110.651 26.7024L107.123 26.7024L105.457 24.2384ZM107.109 20.5984C107.109 20.2344 106.997 19.9544 106.773 19.7584C106.549 19.553 106.213 19.4504 105.765 19.4504L104.561 19.4504L104.561 21.7464L105.765 21.7464C106.213 21.7464 106.549 21.6484 106.773 21.4524C106.997 21.247 107.109 20.9624 107.109 20.5984ZM118.366 24.9944L114.642 24.9944L113.984 26.7024L110.624 26.7024L114.908 16.9024L118.156 16.9024L122.44 26.7024L119.024 26.7024L118.366 24.9944ZM117.456 22.6144L116.504 20.1504L115.552 22.6144L117.456 22.6144ZM127.167 24.2384L126.271 24.2384L126.271 26.7024L122.967 26.7024L122.967 16.9024L127.685 16.9024C128.591 16.9024 129.379 17.0517 130.051 17.3504C130.723 17.649 131.241 18.0784 131.605 18.6384C131.969 19.1984 132.151 19.8517 132.151 20.5984C132.151 21.2984 131.993 21.9097 131.675 22.4324C131.358 22.955 130.901 23.3704 130.303 23.6784L132.361 26.7024L128.833 26.7024L127.167 24.2384ZM128.819 20.5984C128.819 20.2344 128.707 19.9544 128.483 19.7584C128.259 19.553 127.923 19.4504 127.475 19.4504L126.271 19.4504L126.271 21.7464L127.475 21.7464C127.923 21.7464 128.259 21.6484 128.483 21.4524C128.707 21.247 128.819 20.9624 128.819 20.5984ZM139.086 23.1464L139.086 26.7024L135.782 26.7024L135.782 23.1044L132.086 16.9024L135.572 16.9024L137.574 20.2904L139.59 16.9024L142.782 16.9024L139.086 23.1464Z" fill="#FFFFFF" fill-opacity="1.000000" fill-rule="evenodd"/>
	<path id="BOOK STORE" d="M88.1674 45.1271C88.7654 45.2571 89.2247 45.5171 89.5454 45.9071C89.8747 46.2884 90.0394 46.7824 90.0394 47.3891C90.0394 48.1691 89.7491 48.7714 89.1684 49.1961C88.5964 49.6121 87.7471 49.8201 86.6204 49.8201L82.4344 49.8201L82.4344 40.7201L86.3604 40.7201C87.3744 40.7201 88.1587 40.9238 88.7134 41.3311C89.2767 41.7384 89.5584 42.3148 89.5584 43.0601C89.5584 43.5628 89.4327 43.9918 89.1814 44.3471C88.9387 44.6938 88.6007 44.9538 88.1674 45.1271ZM83.3964 41.5131L83.3964 44.8151L86.2954 44.8151C87.0321 44.8151 87.5997 44.6764 87.9984 44.3991C88.3971 44.1131 88.5964 43.7014 88.5964 43.1641C88.5964 42.6268 88.3971 42.2194 87.9984 41.9421C87.5997 41.6561 87.0321 41.5131 86.2954 41.5131L83.3964 41.5131ZM86.6074 49.0271C87.4221 49.0271 88.0374 48.8885 88.4534 48.6111C88.8694 48.3338 89.0774 47.9004 89.0774 47.3111C89.0774 46.1758 88.2541 45.6081 86.6074 45.6081L83.3964 45.6081L83.3964 49.0271L86.6074 49.0271ZM96.2132 49.8981C95.3118 49.8981 94.4928 49.6988 93.7562 49.3001C93.0282 48.8928 92.4562 48.3381 92.0402 47.6361C91.6328 46.9341 91.4292 46.1454 91.4292 45.2701C91.4292 44.3948 91.6328 43.6061 92.0402 42.9041C92.4562 42.2021 93.0282 41.6518 93.7562 41.2531C94.4928 40.8458 95.3118 40.6421 96.2132 40.6421C97.1145 40.6421 97.9248 40.8414 98.6442 41.2401C99.3722 41.6388 99.9442 42.1934 100.36 42.9041C100.776 43.6061 100.984 44.3948 100.984 45.2701C100.984 46.1454 100.776 46.9384 100.36 47.6491C99.9442 48.3511 99.3722 48.9014 98.6442 49.3001C97.9248 49.6988 97.1145 49.8981 96.2132 49.8981ZM96.2132 49.0401C96.9325 49.0401 97.5825 48.8798 98.1632 48.5591C98.7438 48.2298 99.1988 47.7791 99.5282 47.2071C99.8575 46.6264 100.022 45.9808 100.022 45.2701C100.022 44.5594 99.8575 43.9181 99.5282 43.3461C99.1988 42.7654 98.7438 42.3148 98.1632 41.9941C97.5825 41.6648 96.9325 41.5001 96.2132 41.5001C95.4938 41.5001 94.8395 41.6648 94.2502 41.9941C93.6695 42.3148 93.2102 42.7654 92.8722 43.3461C92.5428 43.9181 92.3782 44.5594 92.3782 45.2701C92.3782 45.9808 92.5428 46.6264 92.8722 47.2071C93.2102 47.7791 93.6695 48.2298 94.2502 48.5591C94.8395 48.8798 95.4938 49.0401 96.2132 49.0401ZM107.118 49.8981C106.217 49.8981 105.398 49.6988 104.661 49.3001C103.933 48.8928 103.361 48.3381 102.945 47.6361C102.538 46.9341 102.334 46.1454 102.334 45.2701C102.334 44.3948 102.538 43.6061 102.945 42.9041C103.361 42.2021 103.933 41.6518 104.661 41.2531C105.398 40.8458 106.217 40.6421 107.118 40.6421C108.02 40.6421 108.83 40.8414 109.549 41.2401C110.277 41.6388 110.849 42.1934 111.265 42.9041C111.681 43.6061 111.889 44.3948 111.889 45.2701C111.889 46.1454 111.681 46.9384 111.265 47.6491C110.849 48.3511 110.277 48.9014 109.549 49.3001C108.83 49.6988 108.02 49.8981 107.118 49.8981ZM107.118 49.0401C107.838 49.0401 108.488 48.8798 109.068 48.5591C109.649 48.2298 110.104 47.7791 110.433 47.2071C110.763 46.6264 110.927 45.9808 110.927 45.2701C110.927 44.5594 110.763 43.9181 110.433 43.3461C110.104 42.7654 109.649 42.3148 109.068 41.9941C108.488 41.6648 107.838 41.5001 107.118 41.5001C106.399 41.5001 105.745 41.6648 105.155 41.9941C104.575 42.3148 104.115 42.7654 103.777 43.3461C103.448 43.9181 103.283 44.5594 103.283 45.2701C103.283 45.9808 103.448 46.6264 103.777 47.2071C104.115 47.7791 104.575 48.2298 105.155 48.5591C105.745 48.8798 106.399 49.0401 107.118 49.0401ZM116.867 45.5431L115.008 47.4281L115.008 49.8201L114.046 49.8201L114.046 40.7201L115.008 40.7201L115.008 46.2191L120.351 40.7201L121.456 40.7201L117.517 44.8411L121.729 49.8201L120.585 49.8201L116.867 45.5431ZM129.199 49.8981C128.523 49.8981 127.873 49.7898 127.249 49.5731C126.634 49.3564 126.157 49.0704 125.819 48.7151L126.196 47.9741C126.526 48.3034 126.963 48.5721 127.509 48.7801C128.055 48.9794 128.619 49.0791 129.199 49.0791C130.014 49.0791 130.625 48.9318 131.032 48.6371C131.44 48.3338 131.643 47.9438 131.643 47.4671C131.643 47.1031 131.531 46.8128 131.305 46.5961C131.089 46.3794 130.82 46.2148 130.499 46.1021C130.179 45.9808 129.732 45.8508 129.16 45.7121C128.476 45.5388 127.93 45.3741 127.522 45.2181C127.115 45.0534 126.764 44.8064 126.469 44.4771C126.183 44.1478 126.04 43.7014 126.04 43.1381C126.04 42.6788 126.162 42.2628 126.404 41.8901C126.647 41.5088 127.02 41.2054 127.522 40.9801C128.025 40.7548 128.649 40.6421 129.394 40.6421C129.914 40.6421 130.421 40.7158 130.915 40.8631C131.418 41.0018 131.851 41.1968 132.215 41.4481L131.89 42.2151C131.509 41.9638 131.102 41.7774 130.668 41.6561C130.235 41.5261 129.81 41.4611 129.394 41.4611C128.597 41.4611 127.995 41.6171 127.587 41.9291C127.189 42.2324 126.989 42.6268 126.989 43.1121C126.989 43.4761 127.098 43.7708 127.314 43.9961C127.54 44.2128 127.817 44.3818 128.146 44.5031C128.484 44.6158 128.935 44.7414 129.498 44.8801C130.166 45.0448 130.703 45.2094 131.11 45.3741C131.526 45.5301 131.877 45.7728 132.163 46.1021C132.449 46.4228 132.592 46.8605 132.592 47.4151C132.592 47.8745 132.467 48.2948 132.215 48.6761C131.973 49.0488 131.596 49.3478 131.084 49.5731C130.573 49.7898 129.945 49.8981 129.199 49.8981ZM136.329 41.5521L133.131 41.5521L133.131 40.7201L140.489 40.7201L140.489 41.5521L137.291 41.5521L137.291 49.8201L136.329 49.8201L136.329 41.5521ZM145.877 49.8981C144.976 49.8981 144.157 49.6988 143.42 49.3001C142.692 48.8928 142.12 48.3381 141.704 47.6361C141.297 46.9341 141.093 46.1454 141.093 45.2701C141.093 44.3948 141.297 43.6061 141.704 42.9041C142.12 42.2021 142.692 41.6518 143.42 41.2531C144.157 40.8458 144.976 40.6421 145.877 40.6421C146.779 40.6421 147.589 40.8414 148.308 41.2401C149.036 41.6388 149.608 42.1934 150.024 42.9041C150.44 43.6061 150.648 44.3948 150.648 45.2701C150.648 46.1454 150.44 46.9384 150.024 47.6491C149.608 48.3511 149.036 48.9014 148.308 49.3001C147.589 49.6988 146.779 49.8981 145.877 49.8981ZM145.877 49.0401C146.597 49.0401 147.247 48.8798 147.827 48.5591C148.408 48.2298 148.863 47.7791 149.192 47.2071C149.522 46.6264 149.686 45.9808 149.686 45.2701C149.686 44.5594 149.522 43.9181 149.192 43.3461C148.863 42.7654 148.408 42.3148 147.827 41.9941C147.247 41.6648 146.597 41.5001 145.877 41.5001C145.158 41.5001 144.504 41.6648 143.914 41.9941C143.334 42.3148 142.874 42.7654 142.536 43.3461C142.207 43.9181 142.042 44.5594 142.042 45.2701C142.042 45.9808 142.207 46.6264 142.536 47.2071C142.874 47.7791 143.334 48.2298 143.914 48.5591C144.504 48.8798 145.158 49.0401 145.877 49.0401ZM159.019 49.8201L156.939 46.8951C156.705 46.9211 156.462 46.9341 156.211 46.9341L153.767 46.9341L153.767 49.8201L152.805 49.8201L152.805 40.7201L156.211 40.7201C157.372 40.7201 158.282 40.9974 158.941 41.5521C159.599 42.1068 159.929 42.8694 159.929 43.8401C159.929 44.5508 159.747 45.1531 159.383 45.6471C159.027 46.1324 158.516 46.4834 157.849 46.7001L160.072 49.8201L159.019 49.8201ZM156.185 46.1151C157.086 46.1151 157.775 45.9158 158.252 45.5171C158.728 45.1184 158.967 44.5594 158.967 43.8401C158.967 43.1034 158.728 42.5401 158.252 42.1501C157.775 41.7514 157.086 41.5521 156.185 41.5521L153.767 41.5521L153.767 46.1151L156.185 46.1151ZM168.634 48.9881L168.634 49.8201L162.199 49.8201L162.199 40.7201L168.439 40.7201L168.439 41.5521L163.161 41.5521L163.161 44.7891L167.867 44.7891L167.867 45.6081L163.161 45.6081L163.161 48.9881L168.634 48.9881Z" fill="#FFFFFF" fill-opacity="1.000000" fill-rule="evenodd"/>
	<line id="Line 1" x1="77.714294" y1="34.135742" x2="283.333344" y2="34.135742" stroke="#FFFFFF" stroke-opacity="0.590000" stroke-width="1.000000"/>
	<rect id="books-stack-of-three 2" width="68.000000" height="68.000000" fill="#FFFFFF" fill-opacity="0"/>
	<g clip-path="url(#clip6_286)">
		<path id="Vector" d="M63.1489 24.1307C62.8739 22.0636 62.8352 18.5033 64.7552 17.3077C64.7895 17.2858 64.815 17.2542 64.8451 17.227C66.4148 16.7249 67.5011 16.0203 66.6484 15.0722L43.4929 8.09521L5.99892 13.3081C5.99892 13.3081 1.70539 13.9218 2.08894 20.5923C2.29716 24.2228 3.43583 26.0059 4.43164 26.8833L1.35492 27.8106C0.500965 28.7587 1.58708 29.4635 3.157 29.9648C3.18683 29.9927 3.21199 30.0242 3.2469 30.0461C5.16566 31.2426 5.12873 34.8026 4.85274 36.8701C-2.04041 38.8274 0.433994 39.4652 0.433994 39.4652L1.94608 39.8311C0.882484 40.7923 -0.173801 42.6148 0.0240631 46.0715C0.407818 52.7408 3.93445 53.201 3.93445 53.201L28.4703 61.1761L65.5042 52.2058C65.5042 52.2058 67.9794 51.567 61.0845 49.6095C60.8072 47.5452 60.7687 43.9857 62.6919 42.7861C62.7272 42.7648 62.753 42.7325 62.7816 42.7057C64.3515 42.2037 65.4368 41.4997 64.5839 40.5516L62.9742 40.0656C64.0477 39.4182 65.6603 37.7263 65.9129 33.3315C66.0872 30.3085 65.2986 28.5381 64.3858 27.4958L67.5675 26.7259C67.5677 26.7271 70.0429 26.0882 63.1489 24.1307ZM32.1723 24.0453L38.4 22.7654L59.4461 18.4403L62.5817 17.7954C61.5798 19.6292 61.6218 22.1387 61.7876 23.7516C61.8239 24.1165 61.8658 24.4497 61.9063 24.703L58.4743 25.5563L31.9105 32.1646L32.1723 24.0453ZM5.42056 30.5358L8.55572 31.1808L28.7676 35.3357L30.5334 35.6973L35.8286 36.7857L36.0898 44.9052L8.78788 38.1127L6.09633 37.4438C6.13591 37.1901 6.17771 36.8573 6.21566 36.4914C6.38044 34.8797 6.42326 32.3695 5.42056 30.5358ZM4.20253 20.2712C4.16458 18.497 4.48075 17.2138 5.1198 16.5616C5.52649 16.1451 6.00643 16.0585 6.33559 16.0585C6.50951 16.0585 6.63472 16.0826 6.64325 16.0826L22.7984 21.3495L30.8585 23.9773L30.594 32.1534L7.98243 25.8141L6.78916 25.4798C6.74532 25.4674 6.68586 25.4589 6.64 25.4569C6.54685 25.4502 4.3113 25.2444 4.20253 20.2712ZM28.5287 57.6338L4.72448 50.96C4.68044 50.9472 4.62159 50.9387 4.57573 50.9365C4.48096 50.9302 2.24439 50.7246 2.13623 45.7527C2.09767 43.9761 2.41547 42.6942 3.0533 42.0413C3.461 41.6249 3.94115 41.5382 4.2697 41.5382C4.44402 41.5382 4.56883 41.5616 4.57796 41.5616L28.7915 49.4575L28.5287 57.6338ZM59.7211 49.2308C59.7587 49.5969 59.8005 49.9295 59.841 50.1832L29.8446 57.6454L30.1068 49.5258L36.5198 48.2074L37.4669 48.4365L41.0167 47.2828L57.3796 43.9203L60.5164 43.275C59.5135 45.1085 59.5551 47.619 59.7211 49.2308ZM61.3734 38.1961C61.3188 38.1973 61.2643 38.2046 61.2129 38.2208L58.9506 38.8542L37.4093 44.8944L37.1458 36.7183L44.2133 34.4131L61.3263 28.8322C61.3286 28.8311 62.2266 28.6317 62.8857 29.3019C63.5238 29.9542 63.8403 31.2374 63.803 33.0116C63.6914 37.9832 61.4548 38.1898 61.3734 38.1961Z" fill="#FFFFFF" fill-opacity="1.000000" fill-rule="nonzero"/>
	</g>
</svg>
